<?xml version="1.0" encoding="iso-8859-1"?>
<!-- Uploaded to: SVG Repo, www.svgrepo.com, Generator: SVG Repo Mixer Tools -->
<svg height="128px" width="128px" version="1.1" id="Layer_1" xmlns="http://www.w3.org/2000/svg" xmlns:xlink="http://www.w3.org/1999/xlink" 
	 viewBox="0 0 503.467 503.467" xml:space="preserve">
<g transform="translate(9 1)">
	<path style="fill:#FF7474;" d="M421.933,429.933v34.133c0,18.773-15.36,34.133-34.133,34.133H97.667
		c-18.773,0-34.133-15.36-34.133-34.133v-34.133H421.933z M421.933,120.173v104.96h-358.4v-104.96c2.56,1.707,5.12,2.56,8.533,2.56
		c9.387,0,17.067-7.68,17.067-17.067c0,0,0-17.067,17.067-17.067s17.067,17.067,17.067,17.067c0,9.387,7.68,17.067,17.067,17.067
		s17.067-7.68,17.067-17.067c0,0,0-17.067,17.067-17.067s17.067,17.067,17.067,17.067c0,9.387,7.68,17.067,17.067,17.067
		s17.067-7.68,17.067-17.067c0,0,0-17.067,17.067-17.067s17.067,17.067,17.067,17.067c0,9.387,7.68,17.067,17.067,17.067
		s17.067-7.68,17.067-17.067c0,0,0-17.067,17.067-17.067c17.067,0,17.067,17.067,17.067,17.067c0,9.387,7.68,17.067,17.067,17.067
		s17.067-7.68,17.067-17.067c0,0,0-17.067,17.067-17.067c17.067,0,17.067,17.067,17.067,17.067c0,9.387,7.68,17.067,17.067,17.067
		C416.813,122.733,419.373,121.88,421.933,120.173z"/>
	<path style="fill:#FFE079;" d="M63.533,114.2V88.6c0-9.387,6.827-17.067,17.067-17.067V54.467H63.533V20.333
		c0-9.387,7.68-17.067,17.067-17.067h324.267c9.387,0,17.067,7.68,17.067,17.067v34.133h-17.067v17.067
		c10.24,0,17.067,7.68,17.067,17.067v26.453v5.12c-2.56,1.707-5.12,2.56-8.533,2.56c-9.387,0-17.067-7.68-17.067-17.067
		c0,0,0-17.067-17.067-17.067c-17.067,0-17.067,17.067-17.067,17.067c0,9.387-7.68,17.067-17.067,17.067s-17.067-7.68-17.067-17.067
		c0,0,0-17.067-17.067-17.067c-17.067,0-17.067,17.067-17.067,17.067c0,9.387-7.68,17.067-17.067,17.067s-17.067-7.68-17.067-17.067
		c0,0,0-17.067-17.067-17.067s-17.067,17.067-17.067,17.067c0,9.387-7.68,17.067-17.067,17.067s-17.067-7.68-17.067-17.067
		c0,0,0-17.067-17.067-17.067S157.4,105.667,157.4,105.667c0,9.387-7.68,17.067-17.067,17.067s-17.067-7.68-17.067-17.067
		c0,0,0-17.067-17.067-17.067s-17.067,17.067-17.067,17.067c0,9.387-7.68,17.067-17.067,17.067c-3.413,0-5.973-0.853-8.533-2.56
		V114.2z"/>
	<polygon style="fill:#F2EDDA;" points="63.533,429.933 421.933,429.933 421.933,225.133 63.533,225.133 	"/>
</g>
<path style="fill:#51565F;" d="M396.8,503.467H106.667c-21.333,0-38.4-17.067-38.4-38.4V151.893c0-2.56,1.707-4.267,4.267-4.267
	c2.56,0,4.267,1.707,4.267,4.267v69.973h320c2.56,0,4.267,1.707,4.267,4.267s-1.707,4.267-4.267,4.267h-320v234.667
	c0,16.213,13.653,29.867,29.867,29.867H396.8c16.213,0,29.867-13.653,29.867-29.867V435.2h-320c-2.56,0-4.267-1.707-4.267-4.267
	c0-2.56,1.707-4.267,4.267-4.267h320v-273.92c0-2.56,1.707-4.267,4.267-4.267s4.267,1.707,4.267,4.267v312.32
	C435.2,486.4,418.133,503.467,396.8,503.467z M294.4,366.933H192c-2.56,0-4.267-1.707-4.267-4.267S189.44,358.4,192,358.4h102.4
	c2.56,0,4.267,1.707,4.267,4.267S296.96,366.933,294.4,366.933z M311.467,332.8H192c-2.56,0-4.267-1.707-4.267-4.267
	c0-2.56,1.707-4.267,4.267-4.267h119.467c2.56,0,4.267,1.707,4.267,4.267C315.733,331.093,314.027,332.8,311.467,332.8z
	 M243.2,298.667H192c-2.56,0-4.267-1.707-4.267-4.267c0-2.56,1.707-4.267,4.267-4.267h51.2c2.56,0,4.267,1.707,4.267,4.267
	C247.467,296.96,245.76,298.667,243.2,298.667z M422.4,128c-11.947,0-21.333-9.387-21.333-21.333c0-1.707-0.853-12.8-12.8-12.8
	c-11.947,0-12.8,11.093-12.8,12.8c0,11.947-9.387,21.333-21.333,21.333c-11.947,0-21.333-9.387-21.333-21.333
	c0-1.707-0.853-12.8-12.8-12.8c-11.947,0-12.8,11.093-12.8,12.8c0,11.947-9.387,21.333-21.333,21.333
	c-11.947,0-21.333-9.387-21.333-21.333c0-1.707-0.853-12.8-12.8-12.8c-11.947,0-12.8,11.093-12.8,12.8
	c0,11.947-9.387,21.333-21.333,21.333c-11.947,0-21.333-9.387-21.333-21.333c0-1.707-0.853-12.8-12.8-12.8s-12.8,11.093-12.8,12.8
	c0,11.947-9.387,21.333-21.333,21.333C137.387,128,128,118.613,128,106.667c0-1.707-0.853-12.8-12.8-12.8s-12.8,11.093-12.8,12.8
	c0,11.947-9.387,21.333-21.333,21.333c-3.413,0-7.68-0.853-11.093-3.413c-0.853-0.853-1.707-2.56-1.707-3.413V89.6
	c0-11.093,6.827-18.773,17.067-21.333v-8.533h-12.8c-2.56,0-4.267-1.707-4.267-4.267V21.333C68.267,9.387,77.653,0,89.6,0h324.267
	C425.813,0,435.2,9.387,435.2,21.333v34.133c0,2.56-1.707,4.267-4.267,4.267h-12.8v8.533c10.24,1.707,17.067,10.24,17.067,21.333
	v31.573c0,1.707-0.853,2.56-1.707,3.413C429.227,127.147,426.667,128,422.4,128z M388.267,85.333
	c17.067,0,21.333,13.653,21.333,21.333c0,6.827,5.973,12.8,12.8,12.8c1.707,0,2.56,0,4.267-0.853V89.6c0-7.68-5.12-12.8-12.8-12.8
	c-2.56,0-4.267-1.707-4.267-4.267V55.467c0-2.56,1.707-4.267,4.267-4.267h12.8V21.333c0-6.827-5.973-12.8-12.8-12.8H89.6
	c-6.827,0-12.8,5.973-12.8,12.8V51.2h12.8l0,0l0,0h290.133c2.56,0,4.267,1.707,4.267,4.267c0,2.56-1.707,4.267-4.267,4.267l0,0
	H93.867v12.8c0,2.56-1.707,4.267-4.267,4.267c-8.533,0-12.8,6.827-12.8,12.8v29.013c1.707,0.853,2.56,0.853,4.267,0.853
	c6.827,0,12.8-5.973,12.8-12.8c0-7.68,4.267-21.333,21.333-21.333s21.333,13.653,21.333,21.333c0,6.827,5.973,12.8,12.8,12.8
	c6.827,0,12.8-5.973,12.8-12.8c0-7.68,4.267-21.333,21.333-21.333S204.8,98.987,204.8,106.667c0,6.827,5.973,12.8,12.8,12.8
	c6.827,0,12.8-5.973,12.8-12.8c0-7.68,4.267-21.333,21.333-21.333s21.333,13.653,21.333,21.333c0,6.827,5.973,12.8,12.8,12.8
	c6.827,0,12.8-5.973,12.8-12.8c0-7.68,4.267-21.333,21.333-21.333c17.067,0,21.333,13.653,21.333,21.333
	c0,6.827,5.973,12.8,12.8,12.8s12.8-5.973,12.8-12.8C366.933,98.987,371.2,85.333,388.267,85.333z"/>
</svg>