<svg width="600" height="500" viewBox="0 0 661 652" fill="none" xmlns="http://www.w3.org/2000/svg">
<path d="M658.754 169.083C681.628 365.042 411.5 813.616 320.228 590.994C291.5 470.116 0 419.742 0 296.057C0 172.371 109.157 17.1158 268.89 17.1158C487.5 187.116 658.754 45.398 658.754 169.083Z" fill="#D9D9D9"/>
<path d="M625.5 83.0963C625.5 112.091 520.408 84.1157 458 84.1157C395.592 84.1157 298.5 32.1107 298.5 3.11578C395.5 -19.494 383 91.24 478 6.59635C520.5 101.996 625.5 54.1014 625.5 83.0963Z" fill="#D9D9D9"/>
<path d="M222.032 607.925C196.625 563.925 200.908 520.616 138.5 520.616C76.0918 520.616 3.5 573.611 3.5 544.616C148.5 445.506 -33.7828 405.925 28.6254 405.925C119.625 424.425 368.125 638.425 222.032 607.925Z" fill="#D9D9D9"/>
</svg>
